<svg xmlns="http://www.w3.org/2000/svg" xmlns:xlink="http://www.w3.org/1999/xlink" aria-hidden="true" role="img" class="iconify iconify--logos" width="31.88" height="32" preserveAspectRatio="xMidYMid meet" viewBox="0 0 256 257"><defs><linearGradient id="IconifyId1813088fe1fbc01" x1="-.828%" x2="57.636%" y1="7.652%" y2="78.411%"><stop offset="0" stop-color="#41D1FF"></stop><stop offset="1" stop-color="#BD34FE"></stop></linearGradient><linearGradient id="IconifyId1813088fe1fbc02" x1="43.376%" x2="50.316%" y1="2.242%" y2="89.03%"><stop offset="0" stop-color="#FFEA83"></stop><stop offset=".083" stop-color="#FFDD35"></stop><stop offset="1" stop-color="#FFA800"></stop></linearGradient></defs><path fill="url(#IconifyId1813088fe1fbc01)" d="M255.153 151.001L134.898 252.053c-2.475 2.078-6.147 2.078-8.622 0L5.42 151.001c-3.199-2.687-3.411-7.468-.458-10.421L121.2 24.346c2.433-2.433 6.376-2.433 8.81 0l128.014 128.014c2.196 2.196 1.838 5.869-1.385 7.641z"></path><path fill="url(#IconifyId1813088fe1fbc02)" d="M136.014 44.661L120.015 6.06c-1.393-3.364-6.137-3.364-7.529 0l-15.999 38.6c-.636 1.536.035 3.3.1.2.6.2.2.6.2.6.2.6.2.6.2.6.6l15.999-38.6c1.393-3.364 6.137-3.364 7.529 0l15.999 38.6c.636 1.536-.035 3.3-.1 2.2 4.195-2.098 7.391-6.191 8.529-11s.435-9.809-1.529-14.161z" opacity=".5"></path></svg>
